<svg xmlns="http://www.w3.org/2000/svg" xmlns:xlink="http://www.w3.org/1999/xlink" viewBox="0 0 2291.21 2450.02"><defs><style>.cls-1{fill:#754c29;}.cls-2{fill:url(#linear-gradient);}.cls-3{fill:url(#linear-gradient-2);}.cls-4{fill:url(#linear-gradient-3);}.cls-5{fill:url(#linear-gradient-4);}.cls-6{fill:#fff;}</style><linearGradient id="linear-gradient" x1="495.31" y1="430.58" x2="495.31" y2="1768.01" gradientUnits="userSpaceOnUse"><stop offset="0" stop-color="#f4d087"/><stop offset="1" stop-color="#8b5e3c"/></linearGradient><linearGradient id="linear-gradient-2" x1="1848.99" y1="-32.97" x2="1848.99" y2="1788.53" xlink:href="#linear-gradient"/><linearGradient id="linear-gradient-3" x1="946.54" y1="430.58" x2="946.54" y2="1768.01" xlink:href="#linear-gradient"/><linearGradient id="linear-gradient-4" x1="1397.75" y1="430.58" x2="1397.75" y2="1768.01" xlink:href="#linear-gradient"/></defs><title>Asset 1</title><g id="Layer_2" data-name="Layer 2"><g id="Layer_1-2" data-name="Layer 1"><polygon class="cls-1" points="1414.85 1220.91 1414.85 1220.91 1704.28 949.5 1704.28 1220.91 1503.25 1409.42 1414.85 1220.91"/><polygon class="cls-1" points="512.41 1711.31 512.41 1711.31 801.83 1439.91 801.83 1711.31 512.41 1711.31"/><polygon class="cls-2" points="640.02 1138.23 640.02 1711.31 350.6 1711.31 350.6 1412.98 640.02 1138.23"/><polygon class="cls-3" points="1993.69 673.77 1993.69 1711.3 1704.28 1711.3 1704.28 949.5 1993.69 673.77"/><polygon class="cls-4" points="1091.25 0 1091.25 1711.31 801.83 1711.31 801.83 271.46 1091.25 0"/><polygon class="cls-5" points="1542.46 281.5 1542.46 1711.31 1253.04 1711.31 1253.04 552.96 1542.46 281.5"/><path class="cls-6" d="M150.67,1904.24h73.6V2093A112.13,112.13,0,0,1,0,2093v-18.18H73.6V2093a38.53,38.53,0,0,0,77.06,0Z"/><path class="cls-6" d="M310.86,1904.68h73.6v301.76h-73.6Z"/><path class="cls-6" d="M679.73,2170.08H556.34l-14.28,37.23H462.39l116.46-302.63h77.93l116.9,302.63H694Zm-28.14-73.6L617.82,2009l-33.34,87.46Z"/><path class="cls-6" d="M1027.83,1905.54h73.59v301.77h-80.52L902.28,2027.2v179.24h-73.6v-302.2h81l118.2,179.24Z"/><path class="cls-6" d="M1310.56,2031.54h135.08v120.79l-10.4,10.82c-27.71,28.58-74,47.19-118.63,47.19-85.29,0-154.56-69.27-154.56-154.56s69.27-154.56,154.56-154.56a155.08,155.08,0,0,1,117.33,54.12l-55.85,48.06a80.79,80.79,0,0,0-142.44,52.38c0,44.59,36.36,80.53,81,80.53,19.06,0,40.27-6.5,55.42-16v-15.16h-61.47Z"/><path class="cls-6" d="M1704.11,1905.54h73.61v301.77h-73.61V2103.4H1588.52v103.91h-73.61V1905.54h73.61V2029.8h115.59Z"/><path class="cls-6" d="M2055.67,2170.08H1932.27L1918,2207.31h-79.66l116.46-302.63h77.93l116.9,302.63H2070Zm-28.14-73.6L1993.76,2009l-33.34,87.46Z"/><path class="cls-6" d="M2217.6,1904.68h73.61v301.76H2217.6Z"/><path class="cls-6" d="M86.94,2298.4a81,81,0,0,1,22.38,3.13,59.65,59.65,0,0,1,18.74,8.8l-11.47,15.21a54,54,0,0,0-29.37-8.67,45.64,45.64,0,0,0-24.05,6.42,41.54,41.54,0,0,0-16.23,18.15,58.56,58.56,0,0,0-4.62,14.65,110.81,110.81,0,0,0-1.54,20q0,15.08,2.94,24a45.34,45.34,0,0,0,10.21,16.75q13.43,14.52,34.4,14.52a56.91,56.91,0,0,0,14.83-2,53.86,53.86,0,0,0,13.43-5.58c.37-.19.79-.42,1.26-.7s1.07-.6,1.81-1l11.19,14.52a57.77,57.77,0,0,1-20,9.35,97,97,0,0,1-25.32,3.21,70.61,70.61,0,0,1-28.11-5.46,63.23,63.23,0,0,1-21.88-15.38,71.4,71.4,0,0,1-14.27-23.5,89.08,89.08,0,0,1,.28-60.28,74.94,74.94,0,0,1,14.83-24.2,68.66,68.66,0,0,1,22.43-16.09A67.57,67.57,0,0,1,86.94,2298.4Z"/><path class="cls-6" d="M210.87,2373.37a99.57,99.57,0,0,1,4.62-31.33,66.57,66.57,0,0,1,13.15-23.64,56.78,56.78,0,0,1,20.84-14.83,70.86,70.86,0,0,1,27.69-5.17q17.62,0,30.63,6.29a64.19,64.19,0,0,1,22,17.21,58.55,58.55,0,0,1,11.75,22.38q3.63,12.87,3.64,30.49,0,18.46-3.36,30.63a58.36,58.36,0,0,1-11.47,22q-9.51,11.75-21.39,16.93t-30.08,5.17q-16.79,0-28-4.48a54.49,54.49,0,0,1-20.42-14.83,75.72,75.72,0,0,1-14.83-25Q210.86,2391.56,210.87,2373.37Zm101.55-37.49q-5.6-10.34-14.68-14.68T276,2316.86a44.66,44.66,0,0,0-18.88,4.06q-8.82,4.05-13.28,10.77-8.39,12.31-8.39,39.16,0,31,10.07,46.71a26.47,26.47,0,0,0,12.87,11.05q8.67,3.77,20.7,3.78,27.13,0,35.25-20.7a61.17,61.17,0,0,0,4.2-14.68,133.59,133.59,0,0,0,1.12-19.16,152.17,152.17,0,0,0-1.68-24.9A55.75,55.75,0,0,0,312.42,2335.88Z"/><path class="cls-6" d="M440,2300.92h25.74l47.55,79.45q3.63,5.87,6.86,11.89t5.73,10.77q2.52,4.76,4.2,7.83t2,3.63q-.56-6.15-1.12-12.87-.56-5.87-1-12.87t-.42-14.27l-.84-73.57h22.1v146H527.39l-47.28-77.49q-3.38-5.6-7-12.31t-6.47-12.31q-3.66-6.71-7-13.43.55,4.48,1,14.55t.7,26l1.4,75H440Z"/><path class="cls-6" d="M701,2297.28a104.81,104.81,0,0,1,28,3.78,74,74,0,0,1,23.22,10.49l-10.07,16.22q-19.87-12-40-12-14.27,0-22.66,5.6T671,2336.72q0,10.91,13.43,16.51a44.31,44.31,0,0,0,4.75,2.1q2,.7,7.55,2.1l19.87,5.31A89.5,89.5,0,0,1,733,2368.9a52.51,52.51,0,0,1,13,8.67,34.32,34.32,0,0,1,7.56,11.89,39.36,39.36,0,0,1,2.8,14.41,39.94,39.94,0,0,1-6.3,21.54,46.62,46.62,0,0,1-17.48,16.22q-15.11,8.39-37.21,8.39a116.22,116.22,0,0,1-28.11-3.44,114.34,114.34,0,0,1-25.87-9.78l9.23-17.54q22.66,12.31,46.15,12.31a60.26,60.26,0,0,0,13.29-1.26,31.76,31.76,0,0,0,10.2-4.35q11.48-7,11.47-18.22a18.38,18.38,0,0,0-6.57-14.44q-6.58-5.74-21.68-9.67L682,2378q-15.95-3.92-25.46-14.15a33.72,33.72,0,0,1-9.51-23.69,37.29,37.29,0,0,1,4.06-17.38,42.13,42.13,0,0,1,11.18-13.59,51.09,51.09,0,0,1,17.07-8.83A72.76,72.76,0,0,1,701,2297.28Z"/><path class="cls-6" d="M836.92,2300.92H948.54L946,2319.38H902.1v127.56H880.29V2319.38H836.92Z"/><path class="cls-6" d="M1036.66,2300.92h39.16q9,0,15.52.42a83.46,83.46,0,0,1,11.34,1.4,54.08,54.08,0,0,1,8.39,2.38,38.74,38.74,0,0,1,6.71,3.36,37.6,37.6,0,0,1,13,13.71,38.65,38.65,0,0,1,4.89,19.3q0,19.3-11.61,30.07t-32.59,11a31.59,31.59,0,0,1,4.62,2.94,20.29,20.29,0,0,1,3.21,3.5q3.36,4.2,9.52,11.75t12.31,15.67q3.36,4.2,7.28,9.51T1136,2436q4.2,5.32,8.39,10.91h-27.69q-1.69-3.07-2.94-5.45t-2.65-4.76q-1.41-2.37-3.22-5.17t-4.34-6.43a217.6,217.6,0,0,0-15-20.84,138.5,138.5,0,0,0-13-13.85,25.41,25.41,0,0,0-7.83-5.32,35.25,35.25,0,0,0-8.68-2v63.78h-22.37Zm22.37,18.46v48.12h15.11q12,0,18.74-1.4a28,28,0,0,0,11.47-5q8.12-6.43,8.12-18.74a20.2,20.2,0,0,0-4.06-12.59,23.49,23.49,0,0,0-11.33-7.83,65.92,65.92,0,0,0-9-1.82,84.85,84.85,0,0,0-11.47-.7Z"/><path class="cls-6" d="M1237.23,2300.92h22.37v87.56q0,8.67.57,15a56.76,56.76,0,0,0,1.4,9.37q2.79,8.12,11.19,12.73t20.42,4.61q20.15,0,27.14-10.07a27.38,27.38,0,0,0,4.75-10.21,79.75,79.75,0,0,0,1.12-15.53v-93.43h22.37v92.88q0,9-.56,15.39a57.72,57.72,0,0,1-2,11.19,26.85,26.85,0,0,1-4.06,8.39,51,51,0,0,1-6.57,7.27,45.42,45.42,0,0,1-18,10.35q-10.22,3.07-24.76,3.08a79.59,79.59,0,0,1-19.45-2.1,61.63,61.63,0,0,1-14.4-5.46,36.25,36.25,0,0,1-10.07-7.83,44.84,44.84,0,0,1-6.44-9.51q-1.4-3.07-2.38-5.87a37.4,37.4,0,0,1-1.54-6.15,76.4,76.4,0,0,1-.84-7.83q-.28-4.47-.28-10.91Z"/><path class="cls-6" d="M1511.38,2298.4a81,81,0,0,1,22.38,3.13,59.65,59.65,0,0,1,18.74,8.8L1541,2325.53a54,54,0,0,0-29.37-8.67,45.64,45.64,0,0,0-24.05,6.42,41.54,41.54,0,0,0-16.23,18.15,58.56,58.56,0,0,0-4.62,14.65,110.81,110.81,0,0,0-1.54,20q0,15.08,2.94,24a45.34,45.34,0,0,0,10.21,16.75q13.43,14.52,34.4,14.52a56.91,56.91,0,0,0,14.83-2,53.86,53.86,0,0,0,13.43-5.58c.37-.19.79-.42,1.26-.7s1.07-.6,1.81-1l11.19,14.52a57.77,57.77,0,0,1-20,9.35,97,97,0,0,1-25.32,3.21,70.61,70.61,0,0,1-28.11-5.46,63.23,63.23,0,0,1-21.88-15.38,71.4,71.4,0,0,1-14.27-23.5,89.08,89.08,0,0,1,.28-60.28,74.94,74.94,0,0,1,14.83-24.2,68.66,68.66,0,0,1,22.43-16.09A67.57,67.57,0,0,1,1511.38,2298.4Z"/><path class="cls-6" d="M1626.91,2300.92h111.62l-2.52,18.46h-43.92v127.56h-21.82V2319.38h-43.36Z"/><path class="cls-6" d="M1827.77,2300.64h22.38v146.31h-22.38Z"/><path class="cls-6" d="M1948.89,2373.37a99.57,99.57,0,0,1,4.62-31.33,66.57,66.57,0,0,1,13.15-23.64,56.78,56.78,0,0,1,20.84-14.83,70.86,70.86,0,0,1,27.69-5.17q17.62,0,30.63,6.29a64.19,64.19,0,0,1,22,17.21,58.55,58.55,0,0,1,11.75,22.38q3.63,12.87,3.64,30.49,0,18.46-3.36,30.63a58.36,58.36,0,0,1-11.47,22q-9.51,11.75-21.39,16.93t-30.08,5.17q-16.79,0-28-4.48a54.49,54.49,0,0,1-20.42-14.83,75.72,75.72,0,0,1-14.83-25Q1948.89,2391.56,1948.89,2373.37Zm101.55-37.49q-5.6-10.34-14.68-14.68t-21.69-4.34a44.66,44.66,0,0,0-18.88,4.06q-8.82,4.05-13.28,10.77-8.39,12.31-8.39,39.16,0,31,10.07,46.71a26.47,26.47,0,0,0,12.87,11.05q8.67,3.77,20.7,3.78,27.13,0,35.25-20.7a61.17,61.17,0,0,0,4.2-14.68,133.59,133.59,0,0,0,1.12-19.16,152.17,152.17,0,0,0-1.68-24.9A55.75,55.75,0,0,0,2050.44,2335.88Z"/><path class="cls-6" d="M2178,2300.92h25.74l47.55,79.45q3.63,5.87,6.86,11.89t5.73,10.77q2.52,4.76,4.2,7.83t2,3.63q-.56-6.15-1.12-12.87-.56-5.87-1-12.87t-.42-14.27l-.84-73.57h22.1v146h-23.36l-47.28-77.49q-3.38-5.6-7-12.31t-6.47-12.31q-3.66-6.71-7-13.43.55,4.48,1,14.55t.7,26l1.4,75H2178Z"/></g></g></svg>